<?xml version="1.0" encoding="UTF-8"?>
<svg id="_레이어_2" data-name="레이어 2" xmlns="http://www.w3.org/2000/svg" viewBox="0 0 58.73 60.2">
  <defs>
    <style>
      .cls-1 {
        fill: #272525;
      }

      .cls-2 {
        fill: none;
      }
    </style>
  </defs>
  <g id="_레이어_1-2" data-name="레이어 1">
    <g>
      <path class="cls-2" d="m5.25,29.07l25.07,25.07c2.16-.8,4.24-1.84,6.23-3.1L8.36,22.85c-1.23,1.99-2.28,4.07-3.11,6.22Z"/>
      <path class="cls-2" d="m25.57,53.04c-1.66-1.66-3.78-3.78-6.05-6.05-.57-.57-1.14-1.15-1.73-1.73-.33-.33-.66-.66-.99-.99-4.95-4.95-10.06-10.06-12.5-12.5-2.89,9.55-1.27,17.55-1.26,17.64,0,.03.01.07.02.1.74,5.95,7.13,7.54,9.85,7.95,2.34.35,5.34.09,8.92-.78,3.03-.73,4.78-1.21,5.85-1.54-.28-.28-.6-.6-.96-.96l-1.15-1.15Z"/>
      <path class="cls-2" d="m29.17,5.65c-8.36,3.73-14.86,8.78-19.35,15.02l14.44,14.44,14.44,14.44c8.04-6.03,12.48-14.65,14.56-19.81l-11.8-11.8-12.29-12.29Z"/>
      <path class="cls-2" d="m40.1,2.69l15.9,15.89c.58-5.69-.45-9.9-3.07-12.55-3.32-3.35-8.76-3.68-12.83-3.35Z"/>
      <path class="cls-2" d="m33.38,3.93c-.54.2-1.09.41-1.65.64l22.51,22.51c.21-.64.31-1,.32-1.01.39-1.43.71-2.85.98-4.3L36.88,3.12c-1.94.35-3.3.75-3.5.81Z"/>
      <path class="cls-1" d="m54.76,4.23C50.1-.48,42.6-.42,37.12.46c-2.64.42-4.46.99-4.59,1.03-1.12.41-2.29.88-3.58,1.43h0C19.35,7.05,12,12.83,7.08,20.09c0,0,0,0,0,0-1.89,2.78-3.41,5.77-4.54,8.86C-1.36,39.71.35,49.02.52,49.89c.69,5.39,5.07,9.08,12.01,10.12.79.12,1.64.18,2.55.18,2.15,0,4.61-.33,7.36-1,5.9-1.43,7.22-1.94,8.06-2.39,3.09-1.06,6.05-2.58,8.79-4.51h0c9.59-6.74,14.55-16.93,16.66-22.41.73-1.89,1.06-3.08,1.07-3.13.47-1.74.85-3.44,1.15-5.2h0c1.34-7.85.18-13.68-3.43-17.32ZM21.84,56.69c-3.58.87-6.58,1.13-8.92.78-2.72-.41-9.11-2-9.85-7.95,0-.03-.01-.07-.02-.1-.02-.09-1.64-8.09,1.26-17.64,2.44,2.44,7.55,7.55,12.5,12.5.33.33.66.66.99.99.58.58,1.16,1.16,1.73,1.73,2.27,2.27,4.39,4.39,6.05,6.05l1.15,1.15c.35.35.67.67.96.96-1.07.33-2.82.81-5.85,1.54Zm8.48-2.55L5.25,29.07c.83-2.15,1.88-4.23,3.11-6.22l28.19,28.19c-1.98,1.27-4.07,2.3-6.23,3.1Zm8.38-4.59l-14.44-14.44-14.44-14.44c4.49-6.24,10.99-11.29,19.35-15.02l12.29,12.29,11.8,11.8c-2.08,5.16-6.51,13.78-14.56,19.81Zm15.86-23.48s-.1.37-.32,1.01L31.73,4.56c.57-.23,1.11-.44,1.65-.64.21-.06,1.56-.46,3.5-.81l18.65,18.65c-.27,1.45-.59,2.87-.98,4.3Zm1.44-7.48l-15.9-15.89c4.07-.34,9.51,0,12.83,3.35,2.62,2.64,3.65,6.86,3.07,12.55Z"/>
    </g>
  </g>
</svg>