<?xml version="1.0" encoding="UTF-8"?>
<svg id="_레이어_2" data-name="레이어 2" xmlns="http://www.w3.org/2000/svg" viewBox="0 0 60.78 55.11">
  <defs>
    <style>
      .cls-1 {
        fill: none;
      }

      .cls-2 {
        fill: #231815;
      }
    </style>
  </defs>
  <g id="_레이어_1-2" data-name="레이어 1">
    <g>
      <path class="cls-1" d="m23.61,11.08l-3.34-.34c-.59-.06-1.02-.59-.96-1.18.06-.59.6-1.03,1.18-.96l1.33.14-2.16-2.84c-.36-.47-.27-1.15.2-1.51.48-.36,1.15-.27,1.51.2l3.59,4.72c.07.06.12.14.16.22l.99,1.3.13-1.24c.06-.59.6-1.03,1.18-.96.59.06,1.02.59.96,1.18l-.36,3.53,1.86,2.45c.44-1.82.75-4.7-.67-7.33-1.65-3.06-5.21-5.11-10.59-6.11-.33,2.36-.76,8.29,2.34,11.84,1.62,1.84,4.03,2.8,7.17,2.88l-4.54-5.97Z"/>
      <path class="cls-1" d="m34.3,11.96l-.03.32,3.22-3.19c.42-.42,1.11-.41,1.52,0,.42.42.42,1.11,0,1.52l-.67.66.2.02c.35.04.63.24.8.52.61-1.48.86-2.95.96-3.89-1.68.07-4.94.52-6.73,2.91.47.16.79.6.74,1.11Z"/>
      <path class="cls-1" d="m38.43,13.46s-.07,0-.11,0l-1.97-.2-3.72,3.68c1.89-.21,3.46-.89,4.68-2.05.46-.44.84-.93,1.18-1.44-.02,0-.03,0-.05,0Z"/>
      <path class="cls-1" d="m27.23,38.48h5.36c2.75,0,5.32-1.08,7.24-3.04,1.67-1.71,2.67-3.9,2.86-6.25h-25.54c.43,5.18,4.83,9.29,10.09,9.29Z"/>
      <path class="cls-2" d="m59.7,41.51h-15.79s-.04.01-.06.01c-.02,0-.04-.01-.06-.01h-.02c-.59.01-1.07.51-1.05,1.1.06,2.75-.97,5.34-2.89,7.3-1.92,1.96-4.49,3.04-7.24,3.04h-5.36c-5.46,0-10.01-4.44-10.12-9.91v-.48c-.02-.59-.5-1.06-1.09-1.06h-.02s-.03,0-.04,0c-.02,0-.03,0-.04,0H1.08c-.6,0-1.08.48-1.08,1.08s.48,1.08,1.08,1.08h13.92c.44,6.36,5.8,11.45,12.24,11.45h5.36c3.33,0,6.45-1.31,8.78-3.69,2.07-2.12,3.28-4.84,3.47-7.75h14.86c.6,0,1.08-.48,1.08-1.08s-.48-1.08-1.08-1.08Z"/>
      <path class="cls-2" d="m27.23,40.64h5.36c3.33,0,6.45-1.31,8.78-3.69,2.33-2.38,3.57-5.53,3.5-8.86-.01-.59-.49-1.05-1.08-1.05h-12.57v-7.87s.08,0,.11,0c3.06,0,5.56-.91,7.47-2.72,3.77-3.59,3.71-9.35,3.71-9.6-.01-.56-.44-1.01-1-1.06-2.6-.2-7.07.47-9.56,3.6-.2-.65-.46-1.31-.81-1.97C29.06,3.54,24.61,1.05,17.92.01c-.57-.08-1.1.28-1.22.84-.08.38-1.99,9.43,2.66,14.73,2.12,2.42,5.21,3.63,9.21,3.63.16,0,.34-.02.5-.02v7.85h-13.04c-.29,0-.57.12-.77.32-.2.21-.31.49-.31.78v.49c.15,6.63,5.66,12.02,12.29,12.02Zm5.4-23.7l3.72-3.68,1.97.2s.07,0,.11,0c.02,0,.03,0,.05,0-.33.51-.71,1-1.18,1.44-1.22,1.15-2.78,1.83-4.68,2.05Zm7.66-9c-.09.95-.35,2.42-.96,3.89-.17-.28-.45-.49-.8-.52l-.2-.02.67-.66c.42-.42.43-1.1,0-1.52-.42-.42-1.1-.43-1.52,0l-3.22,3.19.03-.32c.05-.51-.27-.96-.74-1.11,1.79-2.39,5.05-2.84,6.73-2.91Zm-19.31,6.22c-3.11-3.54-2.67-9.47-2.34-11.84,5.38,1,8.94,3.06,10.59,6.11,1.42,2.64,1.11,5.52.67,7.33l-1.86-2.45.36-3.53c.06-.59-.37-1.12-.96-1.18-.58-.07-1.12.37-1.18.96l-.13,1.24-.99-1.3c-.05-.08-.1-.15-.16-.22l-3.59-4.72c-.36-.47-1.04-.57-1.51-.2-.47.36-.57,1.04-.2,1.51l2.16,2.84-1.33-.14c-.58-.06-1.12.37-1.18.96-.06.59.37,1.12.96,1.18l3.34.34,4.54,5.97c-3.15-.08-5.56-1.04-7.17-2.88Zm21.7,15.04c-.19,2.35-1.18,4.54-2.86,6.25-1.92,1.96-4.49,3.04-7.24,3.04h-5.36c-5.26,0-9.66-4.11-10.09-9.29h25.54Z"/>
    </g>
  </g>
</svg>