<?xml version="1.0" encoding="UTF-8"?>
<svg id="_레이어_2" data-name="레이어 2" xmlns="http://www.w3.org/2000/svg" viewBox="0 0 52.52 61.6">
  <g id="_레이어_1-2" data-name="레이어 1">
    <path d="m46,6.52c-1.16-1.16-2.88-1.82-4.72-1.82h-11.28v2.25h-7.49v-2.25h-11.27c-1.81,0-3.58.68-4.72,1.82-1.15,1.15-1.81,2.87-1.81,4.71v9.26h43.1v-9.26c0-1.84-.66-3.56-1.81-4.71Zm-.34,11.82H6.86v-7.11c0-1.27.43-2.43,1.19-3.19s1.93-1.18,3.19-1.18h9.12v.14c0,1.24.85,2.11,2.07,2.11h7.66c1.22,0,2.07-.87,2.07-2.11v-.14h9.12c1.27,0,2.44.43,3.19,1.18.76.76,1.19,1.92,1.19,3.19v7.11Zm-15.66,2.96v1.98h-7.49v-1.98H4.71v15.28h43.1v-15.28h-17.81Zm15.66,13.12H6.86v-10.96h13.5c.05,1.04,1.01,1.97,2.07,1.97h7.66c1.05,0,2.01-.93,2.07-1.97h13.5v10.96Zm-15.66,3.25v1.97h-7.49v-1.97H4.71v8.74c0,1.84.66,3.56,1.81,4.72,1.14,1.14,2.9,1.82,4.72,1.82h30.04c1.84,0,3.56-.67,4.72-1.82,1.15-1.16,1.81-2.88,1.81-4.72v-8.74h-17.81Zm15.66,8.74c0,1.28-.43,2.44-1.19,3.19-.75.76-1.92,1.19-3.19,1.19H11.24c-1.26,0-2.45-.44-3.19-1.19-.76-.75-1.19-1.91-1.19-3.19v-6.59h13.5c.05,1.05,1.01,1.98,2.07,1.98h7.66c1.05,0,2.01-.93,2.07-1.98h13.5v6.59Zm-15.66-8.74v1.97h-7.49v-1.97H4.71v8.74c0,1.84.66,3.56,1.81,4.72,1.14,1.14,2.9,1.82,4.72,1.82h30.04c1.84,0,3.56-.67,4.72-1.82,1.15-1.16,1.81-2.88,1.81-4.72v-8.74h-17.81Zm15.66,8.74c0,1.28-.43,2.44-1.19,3.19-.75.76-1.92,1.19-3.19,1.19H11.24c-1.26,0-2.45-.44-3.19-1.19-.76-.75-1.19-1.91-1.19-3.19v-6.59h13.5c.05,1.05,1.01,1.98,2.07,1.98h7.66c1.05,0,2.01-.93,2.07-1.98h13.5v6.59Zm-15.66-25.11v1.98h-7.49v-1.98H4.71v15.28h43.1v-15.28h-17.81Zm15.66,13.12H6.86v-10.96h13.5c.05,1.04,1.01,1.97,2.07,1.97h7.66c1.05,0,2.01-.93,2.07-1.97h13.5v10.96Zm.34-27.9c-1.16-1.16-2.88-1.82-4.72-1.82h-11.28v2.25h-7.49v-2.25h-11.27c-1.81,0-3.58.68-4.72,1.82-1.15,1.15-1.81,2.87-1.81,4.71v9.26h43.1v-9.26c0-1.84-.66-3.56-1.81-4.71Zm-.34,11.82H6.86v-7.11c0-1.27.43-2.43,1.19-3.19s1.93-1.18,3.19-1.18h9.12v.14c0,1.24.85,2.11,2.07,2.11h7.66c1.22,0,2.07-.87,2.07-2.11v-.14h9.12c1.27,0,2.44.43,3.19,1.18.76.76,1.19,1.92,1.19,3.19v7.11Zm.34-11.82c-1.16-1.16-2.88-1.82-4.72-1.82h-11.28v2.25h-7.49v-2.25h-11.27c-1.81,0-3.58.68-4.72,1.82-1.15,1.15-1.81,2.87-1.81,4.71v9.26h43.1v-9.26c0-1.84-.66-3.56-1.81-4.71Zm-.34,11.82H6.86v-7.11c0-1.27.43-2.43,1.19-3.19s1.93-1.18,3.19-1.18h9.12v.14c0,1.24.85,2.11,2.07,2.11h7.66c1.22,0,2.07-.87,2.07-2.11v-.14h9.12c1.27,0,2.44.43,3.19,1.18.76.76,1.19,1.92,1.19,3.19v7.11Zm-15.66,2.96v1.98h-7.49v-1.98H4.71v15.28h43.1v-15.28h-17.81Zm15.66,13.12H6.86v-10.96h13.5c.05,1.04,1.01,1.97,2.07,1.97h7.66c1.05,0,2.01-.93,2.07-1.97h13.5v10.96Zm-15.66,3.25v1.97h-7.49v-1.97H4.71v8.74c0,1.84.66,3.56,1.81,4.72,1.14,1.14,2.9,1.82,4.72,1.82h30.04c1.84,0,3.56-.67,4.72-1.82,1.15-1.16,1.81-2.88,1.81-4.72v-8.74h-17.81Zm15.66,8.74c0,1.28-.43,2.44-1.19,3.19-.75.76-1.92,1.19-3.19,1.19H11.24c-1.26,0-2.45-.44-3.19-1.19-.76-.75-1.19-1.91-1.19-3.19v-6.59h13.5c.05,1.05,1.01,1.98,2.07,1.98h7.66c1.05,0,2.01-.93,2.07-1.98h13.5v6.59Zm-15.66-8.74v1.97h-7.49v-1.97H4.71v8.74c0,1.84.66,3.56,1.81,4.72,1.14,1.14,2.9,1.82,4.72,1.82h30.04c1.84,0,3.56-.67,4.72-1.82,1.15-1.16,1.81-2.88,1.81-4.72v-8.74h-17.81Zm15.66,8.74c0,1.28-.43,2.44-1.19,3.19-.75.76-1.92,1.19-3.19,1.19H11.24c-1.26,0-2.45-.44-3.19-1.19-.76-.75-1.19-1.91-1.19-3.19v-6.59h13.5c.05,1.05,1.01,1.98,2.07,1.98h7.66c1.05,0,2.01-.93,2.07-1.98h13.5v6.59Zm-15.66-25.11v1.98h-7.49v-1.98H4.71v15.28h43.1v-15.28h-17.81Zm15.66,13.12H6.86v-10.96h13.5c.05,1.04,1.01,1.97,2.07,1.97h7.66c1.05,0,2.01-.93,2.07-1.97h13.5v10.96Zm.34-27.9c-1.16-1.16-2.88-1.82-4.72-1.82h-11.28v2.25h-7.49v-2.25h-11.27c-1.81,0-3.58.68-4.72,1.82-1.15,1.15-1.81,2.87-1.81,4.71v9.26h43.1v-9.26c0-1.84-.66-3.56-1.81-4.71Zm-.34,11.82H6.86v-7.11c0-1.27.43-2.43,1.19-3.19s1.93-1.18,3.19-1.18h9.12v.14c0,1.24.85,2.11,2.07,2.11h7.66c1.22,0,2.07-.87,2.07-2.11v-.14h9.12c1.27,0,2.44.43,3.19,1.18.76.76,1.19,1.92,1.19,3.19v7.11Zm.34-11.82c-1.16-1.16-2.88-1.82-4.72-1.82h-11.28v2.25h-7.49v-2.25h-11.27c-1.81,0-3.58.68-4.72,1.82-1.15,1.15-1.81,2.87-1.81,4.71v9.26h43.1v-9.26c0-1.84-.66-3.56-1.81-4.71Zm-.34,11.82H6.86v-7.11c0-1.27.43-2.43,1.19-3.19s1.93-1.18,3.19-1.18h9.12v.14c0,1.24.85,2.11,2.07,2.11h7.66c1.22,0,2.07-.87,2.07-2.11v-.14h9.12c1.27,0,2.44.43,3.19,1.18.76.76,1.19,1.92,1.19,3.19v7.11Zm-15.66,2.96v1.98h-7.49v-1.98H4.71v15.28h43.1v-15.28h-17.81Zm15.66,13.12H6.86v-10.96h13.5c.05,1.04,1.01,1.97,2.07,1.97h7.66c1.05,0,2.01-.93,2.07-1.97h13.5v10.96Zm-15.66,3.25v1.97h-7.49v-1.97H4.71v8.74c0,1.84.66,3.56,1.81,4.72,1.14,1.14,2.9,1.82,4.72,1.82h30.04c1.84,0,3.56-.67,4.72-1.82,1.15-1.16,1.81-2.88,1.81-4.72v-8.74h-17.81Zm15.66,8.74c0,1.28-.43,2.44-1.19,3.19-.75.76-1.92,1.19-3.19,1.19H11.24c-1.26,0-2.45-.44-3.19-1.19-.76-.75-1.19-1.91-1.19-3.19v-6.59h13.5c.05,1.05,1.01,1.98,2.07,1.98h7.66c1.05,0,2.01-.93,2.07-1.98h13.5v6.59Zm-15.66-8.74v1.97h-7.49v-1.97H4.71v8.74c0,1.84.66,3.56,1.81,4.72,1.14,1.14,2.9,1.82,4.72,1.82h30.04c1.84,0,3.56-.67,4.72-1.82,1.15-1.16,1.81-2.88,1.81-4.72v-8.74h-17.81Zm15.66,8.74c0,1.28-.43,2.44-1.19,3.19-.75.76-1.92,1.19-3.19,1.19H11.24c-1.26,0-2.45-.44-3.19-1.19-.76-.75-1.19-1.91-1.19-3.19v-6.59h13.5c.05,1.05,1.01,1.98,2.07,1.98h7.66c1.05,0,2.01-.93,2.07-1.98h13.5v6.59Zm-15.66-25.11v1.98h-7.49v-1.98H4.71v15.28h43.1v-15.28h-17.81Zm15.66,13.12H6.86v-10.96h13.5c.05,1.04,1.01,1.97,2.07,1.97h7.66c1.05,0,2.01-.93,2.07-1.97h13.5v10.96Zm.34-27.9c-1.16-1.16-2.88-1.82-4.72-1.82h-11.28v2.25h-7.49v-2.25h-11.27c-1.81,0-3.58.68-4.72,1.82-1.15,1.15-1.81,2.87-1.81,4.71v9.26h43.1v-9.26c0-1.84-.66-3.56-1.81-4.71Zm-.34,11.82H6.86v-7.11c0-1.27.43-2.43,1.19-3.19s1.93-1.18,3.19-1.18h9.12v.14c0,1.24.85,2.11,2.07,2.11h7.66c1.22,0,2.07-.87,2.07-2.11v-.14h9.12c1.27,0,2.44.43,3.19,1.18.76.76,1.19,1.92,1.19,3.19v7.11Zm.34-11.82c-1.16-1.16-2.88-1.82-4.72-1.82h-11.28v2.25h-7.49v-2.25h-11.27c-1.81,0-3.58.68-4.72,1.82-1.15,1.15-1.81,2.87-1.81,4.71v9.26h43.1v-9.26c0-1.84-.66-3.56-1.81-4.71Zm-.34,11.82H6.86v-7.11c0-1.27.43-2.43,1.19-3.19s1.93-1.18,3.19-1.18h9.12v.14c0,1.24.85,2.11,2.07,2.11h7.66c1.22,0,2.07-.87,2.07-2.11v-.14h9.12c1.27,0,2.44.43,3.19,1.18.76.76,1.19,1.92,1.19,3.19v7.11Zm-15.66,2.96v1.98h-7.49v-1.98H4.71v15.28h43.1v-15.28h-17.81Zm15.66,13.12H6.86v-10.96h13.5c.05,1.04,1.01,1.97,2.07,1.97h7.66c1.05,0,2.01-.93,2.07-1.97h13.5v10.96Zm-15.66,3.25v1.97h-7.49v-1.97H4.71v8.74c0,1.84.66,3.56,1.81,4.72,1.14,1.14,2.9,1.82,4.72,1.82h30.04c1.84,0,3.56-.67,4.72-1.82,1.15-1.16,1.81-2.88,1.81-4.72v-8.74h-17.81Zm15.66,8.74c0,1.28-.43,2.44-1.19,3.19-.75.76-1.92,1.19-3.19,1.19H11.24c-1.26,0-2.45-.44-3.19-1.19-.76-.75-1.19-1.91-1.19-3.19v-6.59h13.5c.05,1.05,1.01,1.98,2.07,1.98h7.66c1.05,0,2.01-.93,2.07-1.98h13.5v6.59Zm-15.66-6.77h-7.49v-1.97H4.71v8.74c0,1.84.66,3.56,1.81,4.72,1.14,1.14,2.9,1.82,4.72,1.82h30.04c1.84,0,3.56-.67,4.72-1.82,1.15-1.16,1.81-2.88,1.81-4.72v-8.74h-17.81v1.97Zm2.16.18h13.5v6.59c0,1.28-.43,2.44-1.19,3.19-.75.76-1.92,1.19-3.19,1.19H11.24c-1.26,0-2.45-.44-3.19-1.19-.76-.75-1.19-1.91-1.19-3.19v-6.59h13.5c.05,1.05,1.01,1.98,2.07,1.98h7.66c1.05,0,2.01-.93,2.07-1.98Zm-2.16-16.54h-7.49v-1.98H4.71v15.28h43.1v-15.28h-17.81v1.98Zm2.16.18h13.5v10.96H6.86v-10.96h13.5c.05,1.04,1.01,1.97,2.07,1.97h7.66c1.05,0,2.01-.93,2.07-1.97Zm13.84-16.94c-1.16-1.16-2.88-1.82-4.72-1.82h-11.28v2.25h-7.49v-2.25h-11.27c-1.81,0-3.58.68-4.72,1.82-1.15,1.15-1.81,2.87-1.81,4.71v9.26h43.1v-9.26c0-1.84-.66-3.56-1.81-4.71Zm-.34,11.82H6.86v-7.11c0-1.27.43-2.43,1.19-3.19s1.93-1.18,3.19-1.18h9.12v.14c0,1.24.85,2.11,2.07,2.11h7.66c1.22,0,2.07-.87,2.07-2.11v-.14h9.12c1.27,0,2.44.43,3.19,1.18.76.76,1.19,1.92,1.19,3.19v7.11Zm3.58-15.06c-2.03-2.03-5.08-3.28-7.96-3.28H11.24c-3.02,0-5.84,1.16-7.91,3.23C1.15,5.14,0,7.91,0,11.23v35.18c0,3.06,1.14,5.81,3.29,7.97,1.23,1.19,2.44,1.96,3.91,2.47v4.75h8.6v-3.95h20.41v3.95h8.88v-4.67c1.41-.39,2.77-1.23,4.13-2.55l.06-.06c1.48-1.68,3.24-4.41,3.24-7.91V11.23c0-3.01-1.17-5.84-3.28-7.95Zm1.12,43.13c0,2.81-1.44,5.05-2.67,6.45-1.3,1.26-2.56,1.96-3.83,2.13l-.93.13v4.33h-4.56v-3.96H13.64v3.96h-4.29v-4.22l-.79-.21c-1.49-.41-2.58-1.04-3.75-2.18-1.74-1.73-2.65-3.95-2.65-6.43V11.23c0-2.72.87-4.87,2.65-6.43,1.71-1.71,3.99-2.65,6.43-2.65h30.04c2.33,0,4.8,1.02,6.43,2.65,1.71,1.71,2.65,3.99,2.65,6.43v35.18Zm-20.36-6.77h-7.49v-1.97H4.71v8.74c0,1.84.66,3.56,1.81,4.72,1.14,1.14,2.9,1.82,4.72,1.82h30.04c1.84,0,3.56-.67,4.72-1.82,1.15-1.16,1.81-2.88,1.81-4.72v-8.74h-17.81v1.97Zm2.16.18h13.5v6.59c0,1.28-.43,2.44-1.19,3.19-.75.76-1.92,1.19-3.19,1.19H11.24c-1.26,0-2.45-.44-3.19-1.19-.76-.75-1.19-1.91-1.19-3.19v-6.59h13.5c.05,1.05,1.01,1.98,2.07,1.98h7.66c1.05,0,2.01-.93,2.07-1.98Zm-2.16-16.54h-7.49v-1.98H4.71v15.28h43.1v-15.28h-17.81v1.98Zm2.16.18h13.5v10.96H6.86v-10.96h13.5c.05,1.04,1.01,1.97,2.07,1.97h7.66c1.05,0,2.01-.93,2.07-1.97Zm9.12-18.76h-11.28v2.25h-7.49v-2.25h-11.27c-1.81,0-3.58.68-4.72,1.82-1.15,1.15-1.81,2.87-1.81,4.71v9.26h43.1v-9.26c0-1.84-.66-3.56-1.81-4.71-1.16-1.16-2.88-1.82-4.72-1.82Zm4.38,13.64H6.86v-7.11c0-1.27.43-2.43,1.19-3.19s1.93-1.18,3.19-1.18h9.12v.14c0,1.24.85,2.11,2.07,2.11h7.66c1.22,0,2.07-.87,2.07-2.11v-.14h9.12c1.27,0,2.44.43,3.19,1.18.76.76,1.19,1.92,1.19,3.19v7.11Zm.34-11.82c-1.16-1.16-2.88-1.82-4.72-1.82h-11.28v2.25h-7.49v-2.25h-11.27c-1.81,0-3.58.68-4.72,1.82-1.15,1.15-1.81,2.87-1.81,4.71v9.26h43.1v-9.26c0-1.84-.66-3.56-1.81-4.71Zm-.34,11.82H6.86v-7.11c0-1.27.43-2.43,1.19-3.19s1.93-1.18,3.19-1.18h9.12v.14c0,1.24.85,2.11,2.07,2.11h7.66c1.22,0,2.07-.87,2.07-2.11v-.14h9.12c1.27,0,2.44.43,3.19,1.18.76.76,1.19,1.92,1.19,3.19v7.11Zm-15.66,2.96v1.98h-7.49v-1.98H4.71v15.28h43.1v-15.28h-17.81Zm15.66,13.12H6.86v-10.96h13.5c.05,1.04,1.01,1.97,2.07,1.97h7.66c1.05,0,2.01-.93,2.07-1.97h13.5v10.96Zm-15.66,3.25v1.97h-7.49v-1.97H4.71v8.74c0,1.84.66,3.56,1.81,4.72,1.14,1.14,2.9,1.82,4.72,1.82h30.04c1.84,0,3.56-.67,4.72-1.82,1.15-1.16,1.81-2.88,1.81-4.72v-8.74h-17.81Zm15.66,8.74c0,1.28-.43,2.44-1.19,3.19-.75.76-1.92,1.19-3.19,1.19H11.24c-1.26,0-2.45-.44-3.19-1.19-.76-.75-1.19-1.91-1.19-3.19v-6.59h13.5c.05,1.05,1.01,1.98,2.07,1.98h7.66c1.05,0,2.01-.93,2.07-1.98h13.5v6.59Zm-15.66-8.74v1.97h-7.49v-1.97H4.71v8.74c0,1.84.66,3.56,1.81,4.72,1.14,1.14,2.9,1.82,4.72,1.82h30.04c1.84,0,3.56-.67,4.72-1.82,1.15-1.16,1.81-2.88,1.81-4.72v-8.74h-17.81Zm15.66,8.74c0,1.28-.43,2.44-1.19,3.19-.75.76-1.92,1.19-3.19,1.19H11.24c-1.26,0-2.45-.44-3.19-1.19-.76-.75-1.19-1.91-1.19-3.19v-6.59h13.5c.05,1.05,1.01,1.98,2.07,1.98h7.66c1.05,0,2.01-.93,2.07-1.98h13.5v6.59Zm-15.66-25.11v1.98h-7.49v-1.98H4.71v15.28h43.1v-15.28h-17.81Zm15.66,13.12H6.86v-10.96h13.5c.05,1.04,1.01,1.97,2.07,1.97h7.66c1.05,0,2.01-.93,2.07-1.97h13.5v10.96Zm.34-27.9c-1.16-1.16-2.88-1.82-4.72-1.82h-11.28v2.25h-7.49v-2.25h-11.27c-1.81,0-3.58.68-4.72,1.82-1.15,1.15-1.81,2.87-1.81,4.71v9.26h43.1v-9.26c0-1.84-.66-3.56-1.81-4.71Zm-.34,11.82H6.86v-7.11c0-1.27.43-2.43,1.19-3.19s1.93-1.18,3.19-1.18h9.12v.14c0,1.24.85,2.11,2.07,2.11h7.66c1.22,0,2.07-.87,2.07-2.11v-.14h9.12c1.27,0,2.44.43,3.19,1.18.76.76,1.19,1.92,1.19,3.19v7.11Zm.34-11.82c-1.16-1.16-2.88-1.82-4.72-1.82h-11.28v2.25h-7.49v-2.25h-11.27c-1.81,0-3.58.68-4.72,1.82-1.15,1.15-1.81,2.87-1.81,4.71v9.26h43.1v-9.26c0-1.84-.66-3.56-1.81-4.71Zm-.34,11.82H6.86v-7.11c0-1.27.43-2.43,1.19-3.19s1.93-1.18,3.19-1.18h9.12v.14c0,1.24.85,2.11,2.07,2.11h7.66c1.22,0,2.07-.87,2.07-2.11v-.14h9.12c1.27,0,2.44.43,3.19,1.18.76.76,1.19,1.92,1.19,3.19v7.11Zm-15.66,2.96v1.98h-7.49v-1.98H4.71v15.28h43.1v-15.28h-17.81Zm15.66,13.12H6.86v-10.96h13.5c.05,1.04,1.01,1.97,2.07,1.97h7.66c1.05,0,2.01-.93,2.07-1.97h13.5v10.96Zm-15.66,3.25v1.97h-7.49v-1.97H4.71v8.74c0,1.84.66,3.56,1.81,4.72,1.14,1.14,2.9,1.82,4.72,1.82h30.04c1.84,0,3.56-.67,4.72-1.82,1.15-1.16,1.81-2.88,1.81-4.72v-8.74h-17.81Zm15.66,8.74c0,1.28-.43,2.44-1.19,3.19-.75.76-1.92,1.19-3.19,1.19H11.24c-1.26,0-2.45-.44-3.19-1.19-.76-.75-1.19-1.91-1.19-3.19v-6.59h13.5c.05,1.05,1.01,1.98,2.07,1.98h7.66c1.05,0,2.01-.93,2.07-1.98h13.5v6.59Zm-15.66-8.74v1.97h-7.49v-1.97H4.71v8.74c0,1.84.66,3.56,1.81,4.72,1.14,1.14,2.9,1.82,4.72,1.82h30.04c1.84,0,3.56-.67,4.72-1.82,1.15-1.16,1.81-2.88,1.81-4.72v-8.74h-17.81Zm15.66,8.74c0,1.28-.43,2.44-1.19,3.19-.75.76-1.92,1.19-3.19,1.19H11.24c-1.26,0-2.45-.44-3.19-1.19-.76-.75-1.19-1.91-1.19-3.19v-6.59h13.5c.05,1.05,1.01,1.98,2.07,1.98h7.66c1.05,0,2.01-.93,2.07-1.98h13.5v6.59Zm-15.66-25.11v1.98h-7.49v-1.98H4.71v15.28h43.1v-15.28h-17.81Zm15.66,13.12H6.86v-10.96h13.5c.05,1.04,1.01,1.97,2.07,1.97h7.66c1.05,0,2.01-.93,2.07-1.97h13.5v10.96Zm.34-27.9c-1.16-1.16-2.88-1.82-4.72-1.82h-11.28v2.25h-7.49v-2.25h-11.27c-1.81,0-3.58.68-4.72,1.82-1.15,1.15-1.81,2.87-1.81,4.71v9.26h43.1v-9.26c0-1.84-.66-3.56-1.81-4.71Zm-.34,11.82H6.86v-7.11c0-1.27.43-2.43,1.19-3.19s1.93-1.18,3.19-1.18h9.12v.14c0,1.24.85,2.11,2.07,2.11h7.66c1.22,0,2.07-.87,2.07-2.11v-.14h9.12c1.27,0,2.44.43,3.19,1.18.76.76,1.19,1.92,1.19,3.19v7.11Zm.34-11.82c-1.16-1.16-2.88-1.82-4.72-1.82h-11.28v2.25h-7.49v-2.25h-11.27c-1.81,0-3.58.68-4.72,1.82-1.15,1.15-1.81,2.87-1.81,4.71v9.26h43.1v-9.26c0-1.84-.66-3.56-1.81-4.71Zm-.34,11.82H6.86v-7.11c0-1.27.43-2.43,1.19-3.19s1.93-1.18,3.19-1.18h9.12v.14c0,1.24.85,2.11,2.07,2.11h7.66c1.22,0,2.07-.87,2.07-2.11v-.14h9.12c1.27,0,2.44.43,3.19,1.18.76.76,1.19,1.92,1.19,3.19v7.11Zm-15.66,2.96v1.98h-7.49v-1.98H4.71v15.28h43.1v-15.28h-17.81Zm15.66,13.12H6.86v-10.96h13.5c.05,1.04,1.01,1.97,2.07,1.97h7.66c1.05,0,2.01-.93,2.07-1.97h13.5v10.96Zm-15.66,3.25v1.97h-7.49v-1.97H4.71v8.74c0,1.84.66,3.56,1.81,4.72,1.14,1.14,2.9,1.82,4.72,1.82h30.04c1.84,0,3.56-.67,4.72-1.82,1.15-1.16,1.81-2.88,1.81-4.72v-8.74h-17.81Zm15.66,8.74c0,1.28-.43,2.44-1.19,3.19-.75.76-1.92,1.19-3.19,1.19H11.24c-1.26,0-2.45-.44-3.19-1.19-.76-.75-1.19-1.91-1.19-3.19v-6.59h13.5c.05,1.05,1.01,1.98,2.07,1.98h7.66c1.05,0,2.01-.93,2.07-1.98h13.5v6.59Zm-15.66-8.74v1.97h-7.49v-1.97H4.71v8.74c0,1.84.66,3.56,1.81,4.72,1.14,1.14,2.9,1.82,4.72,1.82h30.04c1.84,0,3.56-.67,4.72-1.82,1.15-1.16,1.81-2.88,1.81-4.72v-8.74h-17.81Zm15.66,8.74c0,1.28-.43,2.44-1.19,3.19-.75.76-1.92,1.19-3.19,1.19H11.24c-1.26,0-2.45-.44-3.19-1.19-.76-.75-1.19-1.91-1.19-3.19v-6.59h13.5c.05,1.05,1.01,1.98,2.07,1.98h7.66c1.05,0,2.01-.93,2.07-1.98h13.5v6.59Zm-15.66-25.11v1.98h-7.49v-1.98H4.71v15.28h43.1v-15.28h-17.81Zm15.66,13.12H6.86v-10.96h13.5c.05,1.04,1.01,1.97,2.07,1.97h7.66c1.05,0,2.01-.93,2.07-1.97h13.5v10.96Zm.34-27.9c-1.16-1.16-2.88-1.82-4.72-1.82h-11.28v2.25h-7.49v-2.25h-11.27c-1.81,0-3.58.68-4.72,1.82-1.15,1.15-1.81,2.87-1.81,4.71v9.26h43.1v-9.26c0-1.84-.66-3.56-1.81-4.71Zm-.34,11.82H6.86v-7.11c0-1.27.43-2.43,1.19-3.19s1.93-1.18,3.19-1.18h9.12v.14c0,1.24.85,2.11,2.07,2.11h7.66c1.22,0,2.07-.87,2.07-2.11v-.14h9.12c1.27,0,2.44.43,3.19,1.18.76.76,1.19,1.92,1.19,3.19v7.11Zm.34-11.82c-1.16-1.16-2.88-1.82-4.72-1.82h-11.28v2.25h-7.49v-2.25h-11.27c-1.81,0-3.58.68-4.72,1.82-1.15,1.15-1.81,2.87-1.81,4.71v9.26h43.1v-9.26c0-1.84-.66-3.56-1.81-4.71Zm-.34,11.82H6.86v-7.11c0-1.27.43-2.43,1.19-3.19s1.93-1.18,3.19-1.18h9.12v.14c0,1.24.85,2.11,2.07,2.11h7.66c1.22,0,2.07-.87,2.07-2.11v-.14h9.12c1.27,0,2.44.43,3.19,1.18.76.76,1.19,1.92,1.19,3.19v7.11Zm-15.66,2.96v1.98h-7.49v-1.98H4.71v15.28h43.1v-15.28h-17.81Zm15.66,13.12H6.86v-10.96h13.5c.05,1.04,1.01,1.97,2.07,1.97h7.66c1.05,0,2.01-.93,2.07-1.97h13.5v10.96Zm-15.66,3.25v1.97h-7.49v-1.97H4.71v8.74c0,1.84.66,3.56,1.81,4.72,1.14,1.14,2.9,1.82,4.72,1.82h30.04c1.84,0,3.56-.67,4.72-1.82,1.15-1.16,1.81-2.88,1.81-4.72v-8.74h-17.81Zm15.66,8.74c0,1.28-.43,2.44-1.19,3.19-.75.76-1.92,1.19-3.19,1.19H11.24c-1.26,0-2.45-.44-3.19-1.19-.76-.75-1.19-1.91-1.19-3.19v-6.59h13.5c.05,1.05,1.01,1.98,2.07,1.98h7.66c1.05,0,2.01-.93,2.07-1.98h13.5v6.59Zm-15.66-8.74v1.97h-7.49v-1.97H4.71v8.74c0,1.84.66,3.56,1.81,4.72,1.14,1.14,2.9,1.82,4.72,1.82h30.04c1.84,0,3.56-.67,4.72-1.82,1.15-1.16,1.81-2.88,1.81-4.72v-8.74h-17.81Zm15.66,8.74c0,1.28-.43,2.44-1.19,3.19-.75.76-1.92,1.19-3.19,1.19H11.24c-1.26,0-2.45-.44-3.19-1.19-.76-.75-1.19-1.91-1.19-3.19v-6.59h13.5c.05,1.05,1.01,1.98,2.07,1.98h7.66c1.05,0,2.01-.93,2.07-1.98h13.5v6.59Zm-15.66-25.11v1.98h-7.49v-1.98H4.71v15.28h43.1v-15.28h-17.81Zm15.66,13.12H6.86v-10.96h13.5c.05,1.04,1.01,1.97,2.07,1.97h7.66c1.05,0,2.01-.93,2.07-1.97h13.5v10.96Zm.34-27.9c-1.16-1.16-2.88-1.82-4.72-1.82h-11.28v2.25h-7.49v-2.25h-11.27c-1.81,0-3.58.68-4.72,1.82-1.15,1.15-1.81,2.87-1.81,4.71v9.26h43.1v-9.26c0-1.84-.66-3.56-1.81-4.71Zm-.34,11.82H6.86v-7.11c0-1.27.43-2.43,1.19-3.19s1.93-1.18,3.19-1.18h9.12v.14c0,1.24.85,2.11,2.07,2.11h7.66c1.22,0,2.07-.87,2.07-2.11v-.14h9.12c1.27,0,2.44.43,3.19,1.18.76.76,1.19,1.92,1.19,3.19v7.11Z"/>
  </g>
</svg>