<?xml version="1.0" encoding="UTF-8"?>
<svg id="_레이어_2" data-name="레이어 2" xmlns="http://www.w3.org/2000/svg" viewBox="0 0 13.66 7.5">
  <defs>
    <style>
      .cls-1 {
        fill: #575554;
      }
    </style>
  </defs>
  <g id="_레이어_1-2" data-name="레이어 1">
    <path class="cls-1" d="m13.48,3.36C11.39,1.13,9.16,0,6.86,0,3.45,0,.87,2.51.16,3.28c-.22.23-.22.6,0,.83,2.07,2.25,4.29,3.38,6.6,3.38h0c3.31,0,6-2.26,6.78-3.35.17-.24.14-.56-.06-.78Zm-12.11.34c.88-.85,2.61-2.22,4.76-2.48-1.13.29-1.97,1.31-1.97,2.54s.88,2.29,2.05,2.56c-1.65-.16-3.28-1.03-4.84-2.61Zm8.05.05c0-1.25-.88-2.3-2.05-2.56,1.66.15,3.3,1,4.89,2.58-.55.56-2.41,2.28-4.87,2.54,1.16-.27,2.03-1.31,2.03-2.56Z"/>
  </g>
</svg>