<?xml version="1.0" encoding="UTF-8"?>
<svg id="_레이어_2" data-name="레이어 2" xmlns="http://www.w3.org/2000/svg" viewBox="0 0 30.27 27.53">
  <defs>
    <style>
      .cls-1 {
        fill: #7d7d7d;
      }
    </style>
  </defs>
  <g id="_레이어_1-2" data-name="레이어 1">
    <path class="cls-1" d="m27.45,8.22l-3.95.26c0-2.34-.95-4.46-2.49-5.99-1.53-1.54-3.65-2.49-5.99-2.49C10.35,0,6.55,3.8,6.55,8.48l-3.75-.26c-1.79,0-3.12,1.66-2.74,3.4l2.99,13.69c.28,1.28,1.43,2.21,2.74,2.21h18.49c1.31,0,2.44-.91,2.74-2.18l3.17-13.68c.4-1.76-.93-3.44-2.74-3.44Zm-18.01.26c0-3.08,2.51-5.58,5.58-5.58s5.58,2.51,5.58,5.58h-11.17Z"/>
  </g>
</svg>