<?xml version="1.0" encoding="UTF-8"?>
<svg id="_레이어_2" data-name="레이어 2" xmlns="http://www.w3.org/2000/svg" viewBox="0 0 610.14 829.87">
  <defs>
    <style>
      .cls-1 {
        fill: #d6d2c9;
        opacity: .18;
      }
    </style>
  </defs>
  <g id="_레이어_1-2" data-name="레이어 1">
    <path class="cls-1" d="m534.61,526.76s75.53-15.69,75.53-139.29-77.49-155.97-77.49-155.97H34.33V32.37h311.94V0H0v683.71h316.84v-.9c6.06,14.26,20.19,24.27,36.66,24.27,21.99,0,39.82-17.83,39.82-39.82s-17.83-39.82-39.82-39.82c-16.47,0-30.6,10-36.66,24.27v-3.31H34.33v-379.5h489.2s52.03,33.84,52.03,116.61-50.4,109.27-50.4,109.27h-187.23l.37,29.77,237.63,305.32,28.69-23.17-220.83-279.93h150.82Z"/>
  </g>
</svg>