<?xml version="1.0" encoding="UTF-8"?>
<svg id="_레이어_2" data-name="레이어 2" xmlns="http://www.w3.org/2000/svg" viewBox="0 0 59.22 41.23">
  <defs>
    <style>
      .cls-1 {
        fill: none;
      }

      .cls-2 {
        fill: #231815;
      }
    </style>
  </defs>
  <g id="_레이어_1-2" data-name="레이어 1">
    <g>
      <path class="cls-1" d="m36.52,22.3c.83-1.3,1.89-2.41,3.1-3.3l-3.41-4.9-4.02,8.21h4.32Z"/>
      <path class="cls-1" d="m41.91,22.3l-1.06-1.53c-.6.44-1.14.96-1.63,1.53h2.69Z"/>
      <path class="cls-1" d="m29.55,22.3h.24l4.52-9.25h-15.77l9.85,9.37c.37-.08.76-.12,1.15-.12Z"/>
      <rect class="cls-1" x="33.6" y="7.1" width="7.33" height=".65"/>
      <path class="cls-1" d="m15.43,19.24l-2.14,10.2c-.11.51-.55.86-1.05.86-.07,0-.15,0-.22-.02-.58-.12-.96-.69-.83-1.28l2.14-10.2c-.33-.03-.66-.05-1-.05-5.6,0-10.16,4.56-10.16,10.16s4.56,10.16,10.16,10.16,10.16-4.56,10.16-10.16c0-4.52-2.96-8.35-7.05-9.67Z"/>
      <path class="cls-1" d="m46.97,27.8c0-1.85-1.5-3.35-3.35-3.35h-14.07c-1.85,0-3.35,1.5-3.35,3.35s1.5,3.35,3.35,3.35h14.07c1.85,0,3.35-1.5,3.35-3.35Z"/>
      <path class="cls-1" d="m46.9,18.75c-1.47,0-2.89.33-4.19.92l1.89,2.71c2.57.46,4.53,2.71,4.53,5.42,0,3.04-2.47,5.51-5.51,5.51h-5.88c1.67,3.5,5.18,5.76,9.16,5.76,5.6,0,10.16-4.56,10.16-10.16s-4.56-10.16-10.16-10.16Z"/>
      <path class="cls-1" d="m16.51,14.09l-.64,3.04c4.19,1.27,7.44,4.71,8.43,9.01.36-1.11,1.06-2.07,1.98-2.75l-9.77-9.3Z"/>
      <path class="cls-2" d="m46.9,16.6c-1.92,0-3.77.45-5.44,1.27l-4.17-6,.96-1.97h3.75c.6,0,1.08-.48,1.08-1.08v-2.8c0-.6-.48-1.08-1.08-1.08h-9.48c-.6,0-1.08.48-1.08,1.08v2.8c0,.6.48,1.08,1.08,1.08h3.34l-.48.99h-18.19l2.02-9.6c.07-.32-.01-.65-.22-.9-.2-.25-.51-.4-.84-.4h-9.79c-.26,0-.5.09-.7.26-.56.48-3.35,2.99-2.74,5.28.32,1.19,1.41,1.97,3.24,2.31.59.1,1.15-.28,1.26-.86s-.28-1.15-.86-1.26c-1.05-.19-1.49-.51-1.55-.75-.16-.58.76-1.88,1.77-2.82h8.05l-3.05,14.53c-.47-.06-.95-.09-1.44-.09-6.79,0-12.32,5.53-12.32,12.32s5.52,12.32,12.32,12.32c6.38,0,11.64-4.87,12.25-11.09.88,1.87,2.78,3.17,4.98,3.17h5.85c1.81,4.76,6.34,7.92,11.5,7.92,6.79,0,12.32-5.52,12.32-12.32s-5.52-12.32-12.32-12.32Zm-13.3-9.49h7.33v.65h-7.33v-.65Zm6.02,11.89c-1.21.89-2.27,2-3.1,3.3h-4.32l4.02-8.21,3.41,4.9Zm1.23,1.78l1.06,1.53h-2.69c.49-.57,1.03-1.08,1.63-1.53Zm-6.53-7.72l-4.52,9.25h-.24c-.4,0-.78.04-1.15.12l-9.85-9.37h15.77Zm-22,26.02c-5.6,0-10.16-4.56-10.16-10.16s4.56-10.16,10.16-10.16c.34,0,.67.02,1,.05l-2.14,10.2c-.12.58.25,1.15.83,1.28.07.02.15.02.22.02.5,0,.95-.35,1.05-.86l2.14-10.2c4.08,1.32,7.05,5.15,7.05,9.67,0,5.6-4.56,10.16-10.16,10.16Zm11.99-12.94c-1-4.3-4.24-7.74-8.43-9.01l.64-3.04,9.77,9.3c-.92.68-1.62,1.64-1.98,2.75Zm1.9,1.67c0-1.85,1.5-3.35,3.35-3.35h14.07c1.85,0,3.35,1.5,3.35,3.35s-1.5,3.35-3.35,3.35h-14.07c-1.85,0-3.35-1.5-3.35-3.35Zm20.7,11.27c-3.97,0-7.49-2.26-9.16-5.76h5.88c3.04,0,5.51-2.47,5.51-5.51,0-2.7-1.96-4.95-4.53-5.42l-1.89-2.71c1.3-.59,2.72-.92,4.19-.92,5.6,0,10.16,4.56,10.16,10.16s-4.56,10.16-10.16,10.16Z"/>
    </g>
  </g>
</svg>