<?xml version="1.0" encoding="UTF-8"?>
<svg id="_레이어_2" data-name="레이어 2" xmlns="http://www.w3.org/2000/svg" viewBox="0 0 41.43 60.23">
  <defs>
    <style>
      .cls-1 {
        fill: #272525;
      }

      .cls-2 {
        fill: none;
      }
    </style>
  </defs>
  <g id="_레이어_1-2" data-name="레이어 1">
    <g>
      <path class="cls-2" d="m30.3,4.61c0,1.41-1.15,2.56-2.55,2.56s-2.55-1.15-2.55-2.56,1.14-2.55,2.55-2.55,2.55,1.15,2.55,2.55Z"/>
      <path class="cls-2" d="m25.19,18.81c0,.54-.43.98-.97.98h-7.35c-.54,0-.97-.44-.97-.98s.43-.98.97-.98h7.35c.54,0,.97.44.97.98Z"/>
      <path class="cls-2" d="m22.22,9.95c0,.39-.32.71-.72.71s-.71-.32-.71-.71.32-.72.71-.72.72.32.72.72Z"/>
      <path class="cls-2" d="m28.7,12.12c0,.63-.51,1.15-1.14,1.15s-1.15-.52-1.15-1.15.52-1.14,1.15-1.14,1.14.51,1.14,1.14Z"/>
      <path class="cls-2" d="m27.91,36.76l-14.72-.02,4.4-7.62c.09-.15.14-.33.14-.52v-6.75h5.63v6.75c0,.18.05.36.14.52l4.41,7.64Z"/>
      <path class="cls-1" d="m21.5,7.16c-1.53,0-2.78,1.25-2.78,2.79s1.25,2.78,2.78,2.78,2.78-1.25,2.78-2.78-1.25-2.79-2.78-2.79Zm0,2.07c.4,0,.72.32.72.72s-.32.71-.72.71-.71-.32-.71-.71.32-.72.71-.72Z"/>
      <path class="cls-1" d="m32.36,4.61c0-2.54-2.07-4.61-4.61-4.61s-4.62,2.07-4.62,4.61c0,2.15,1.49,3.95,3.48,4.46-1.31.41-2.26,1.61-2.26,3.05,0,1.77,1.44,3.21,3.21,3.21s3.21-1.44,3.21-3.21c0-1.37-.87-2.53-2.07-2.99,2.09-.44,3.66-2.3,3.66-4.52Zm-4.8,8.66c-.63,0-1.15-.52-1.15-1.15s.52-1.14,1.15-1.14,1.14.51,1.14,1.14-.51,1.15-1.14,1.15Zm.19-6.1c-1.41,0-2.55-1.15-2.55-2.56s1.14-2.55,2.55-2.55,2.55,1.15,2.55,2.55-1.15,2.56-2.55,2.56Z"/>
      <path class="cls-1" d="m40.98,55.21l-10.35-17.93c-.06-.09-.13-.18-.22-.26-.04-.19-.13-.37-.26-.51l-4.73-8.18v-6.73c1.11-.48,1.84-1.58,1.84-2.79,0-1.68-1.37-3.04-3.04-3.04h-7.35c-1.67,0-3.04,1.36-3.04,3.04,0,1.21.73,2.31,1.84,2.79v6.73l-4.73,8.18c-.13.14-.22.31-.26.5-.09.08-.15.16-.2.25L.52,54.5c-.69,1.2-.69,2.63,0,3.82.69,1.2,1.93,1.91,3.31,1.91h34.25c1.21,0,2.3-.62,2.9-1.67.61-1.05.61-2.3,0-3.35Zm-2.9,2.96H3.83c-.64,0-1.2-.33-1.52-.88s-.32-1.21,0-1.76l9.66-16.72,17.17.02,10.05,17.42c.23.4.23.88,0,1.28-.23.4-.64.64-1.11.64ZM16.87,17.83h7.35c.54,0,.97.44.97.98s-.43.98-.97.98h-7.35c-.54,0-.97-.44-.97-.98s.43-.98.97-.98Zm.72,11.29c.09-.15.14-.33.14-.52v-6.75h5.63v6.75c0,.18.05.36.14.52l4.41,7.64-14.72-.02,4.4-7.62Z"/>
    </g>
  </g>
</svg>