<?xml version="1.0" encoding="UTF-8"?>
<svg id="_레이어_2" data-name="레이어 2" xmlns="http://www.w3.org/2000/svg" viewBox="0 0 25.23 24.84">
  <defs>
    <style>
      .cls-1 {
        fill: #4ca1b9;
        stroke: #4ca1b9;
        stroke-miterlimit: 10;
      }
    </style>
  </defs>
  <g id="_레이어_1-2" data-name="레이어 1">
    <path class="cls-1" d="m24.49,22.96l-5.65-5.47c1.55-1.87,2.4-4.21,2.4-6.62C21.24,5.15,16.59.5,10.87.5S.5,5.15.5,10.87s4.65,10.37,10.37,10.37c.49,0,.92-.03,1.29-.08.21-.02.4-.13.54-.3.13-.17.2-.39.17-.6-.06-.44-.46-.75-.89-.7-.44.05-.78.07-1.1.07-4.83,0-8.77-3.93-8.77-8.77S6.04,2.11,10.87,2.11s8.76,3.93,8.76,8.76c0,2.26-.85,4.4-2.4,6.03l-.07.07-.09.11c-.1.14-.15.3-.15.47,0,.21.09.41.24.56l6.2,6c.14.14.34.22.56.22s.43-.09.57-.24c.15-.15.23-.35.23-.57,0-.21-.09-.42-.24-.56Z"/>
  </g>
</svg>