<?xml version="1.0" encoding="UTF-8"?>
<svg id="_레이어_2" data-name="레이어 2" xmlns="http://www.w3.org/2000/svg" viewBox="0 0 52.59 60.14">
  <defs>
    <style>
      .cls-1 {
        fill: #272525;
      }
    </style>
  </defs>
  <g id="_레이어_1-2" data-name="레이어 1">
    <g>
      <path class="cls-1" d="m45.46,7.55c.45.32.97.48,1.49.48.8,0,1.58-.37,2.08-1.06.82-1.14.56-2.75-.58-3.57-1.14-.82-2.75-.56-3.57.58,0,0,0,0,0,0-.82,1.15-.56,2.75.59,3.57Zm1.32-2.2c.07-.09.2-.12.29-.05.1.07.12.2.05.3-.07.09-.2.11-.3.05-.09-.07-.11-.2-.05-.29Z"/>
      <path class="cls-1" d="m.33,51c.1.89.88,1.38,1.72.99.74-.35,2.68-1.71,3.51-1.45.97.31.86,1.01,1.43,1.58.78.79,1.32,1.24,2.5,1.34.72.06,1.52-.33,2.21-.22,1.97.31,1.52,1.11,2.33,2.14.69.88,1.48,1.16,2.59,1.12,1-.03,1.32-.39,2.33.1,1.08.52,1,1.08,1.66,1.98.6.81,1.24,1.37,2.28,1.53,2.36.36,4.32-1.89,5.85-3.33.12-.12.21-.24.26-.37.03.01.06.03.09.04l2.83-4.52c.06-.1.11-.21.14-.32,0,0,0-.03.01-.06l8.73-15.46c.04-.07.07-.15.1-.23,0-.02,0-.03.01-.05.02-.08.03-.16.04-.24,0-.01,0-.03,0-.04l.27-11.88,10.65-14.82c.05-.08.1-.16.13-.24.08-.2,1.93-4.89-1.41-7.43-.01-.01-.03-.02-.04-.04-.04-.03-.08-.06-.13-.09-.02-.02-.05-.04-.07-.05-.03-.02-.06-.05-.09-.07-.03-.02-.06-.04-.1-.06-3.47-2.34-7.31.91-7.48,1.05-.07.06-.13.13-.19.2l-10.68,14.86-10.15,4.62c-.22.05-.42.16-.58.33l-10.22,10.82c-.08.06-.16.11-.23.19l-5.43,6.24c-.13.08-.24.18-.33.31l-3.73,5.2c-.1.08-.2.17-.28.3-.11.17-.21.34-.29.5l-.09.12s.01,0,.02,0c-.87,1.78-.41,3.36-.18,5.4ZM33.08,18.97c.19-.08.35-.22.47-.38l4.31-6,6.46-8.99c.25-.19.95-.7,1.81-1,.22-.07.44-.14.67-.18.12-.02.24-.04.36-.05.59-.04,1.2.07,1.76.47.02.02.05.03.07.05,0,0,0,0,.01,0,0,0,.01,0,.02.01.01,0,.02.02.03.02.02.02.05.04.07.06.2.15.37.32.51.5.13.17.23.35.32.53.22.49.29,1.02.29,1.53,0,0,0,0,0,.01,0,.21-.02.42-.04.62-.04.32-.1.62-.16.86-.06.24-.12.43-.16.55l-7.92,11.03-2.85,3.96c-.14.19-.21.42-.22.66l-.22,10.02-9.57-6.87-4.79-3.43,8.78-3.99Zm-10.98,5.3l16.15,11.58-3.29,5.82-3.29,5.82h0c-.06-.15-.14-.29-.22-.44-.08-.15-.17-.3-.26-.44-.16-.24-.33-.47-.52-.69-.18-.21-.38-.41-.59-.6-.96-.87-2.22-1.53-3.78-1.96-.52-.14-1.07-.26-1.66-.35-.06,0-.12-.01-.18-.01-.07,0-.13,0-.2.02,0,0,0,0-.02,0-.03,0-.07,0-.14.01-.03,0-.07,0-.11,0-.04,0-.09,0-.14,0-.15,0-.32,0-.52-.03-.36-.04-.78-.15-1.15-.37-.12-.07-.24-.16-.36-.26-.14-.12-.26-.27-.36-.43-.26-.41-.41-.95-.48-1.59-.01-.13-.03-.25-.04-.39,0-.16,0-.33,0-.5,0,0,0,0,0-.01,0-.04.02-.08.03-.12.04-.19.09-.41.13-.66,0-.01,0-.03,0-.04.01-.07.02-.16.04-.23.01-.09.03-.17.04-.27.12-.85.14-1.55.1-2.14-.02-.3-.06-.58-.12-.82-.16-.72-.43-1.2-.7-1.51-.18-.21-.36-.34-.5-.43-.4-.24-.81-.33-1.24-.32-.21,0-.43.04-.64.09-.96.24-1.92.92-2.71,1.58-.09.07-.17.15-.26.22-.06.04-.13.08-.21.12-.23.12-.51.24-.79.32-.09.03-.18.05-.27.07-.09.02-.17.03-.26.04-.08,0-.16,0-.23,0-.07-.01-.13-.03-.18-.06-.18-.09-.37-.44-.45-1.13l9.35-9.9ZM2.83,46.14s.09.02.13.03l3.63-5.05c.06-.05.12-.1.17-.16l4.15-4.77c.29.53.68.92,1.19,1.19,1.83.96,4.12-.47,4.37-.64.04-.03.09-.06.12-.09,1.36-1.18,1.99-1.34,2.16-1.36.28.46.22,2.23-.13,3.77-.02.07-.03.14-.03.21-.1,2.17.46,3.82,1.67,4.9,1.51,1.34,3.51,1.28,4.18,1.21,2.32.4,3.92,1.24,4.76,2.5.81,1.22.68,2.56.62,2.99l-2.69,4.29h0s0,0,0,0c-1.11,1.05-3,3.49-4.74,1.98-.77-.67-.81-2.01-1.71-2.7-.79-.6-1.4-.58-2.35-.6-.58.21-1.16.21-1.74,0-.71.14-1.12-.12-1.21-.78-.42-.43-.42-.91-.9-1.33-.7-.61-1.54-.76-2.43-.77-.59,0-1.28.3-1.85.2-2.49-.41-1.21-1.04-2.29-1.92-1.82-1.46-3.55-.88-5.44.02-.04.02-.08.04-.12.06,0-.04,0-.07-.01-.11-.15-1.03-.17-2.03.5-3.05Z"/>
    </g>
  </g>
</svg>