<?xml version="1.0" encoding="UTF-8"?>
<svg id="_레이어_2" data-name="레이어 2" xmlns="http://www.w3.org/2000/svg" viewBox="0 0 109.6 60.2">
  <defs>
    <style>
      .cls-1 {
        fill: none;
      }

      .cls-2 {
        fill: #231815;
      }
    </style>
  </defs>
  <g id="_레이어_1-2" data-name="레이어 1">
    <g>
      <rect class="cls-1" x="53.49" y="2.25" width="2.61" height="1.31"/>
      <path class="cls-1" d="m34.4,2.25l-1.31,1.31h7.96c-.08-.44-.13-.88-.17-1.31h-6.47Z"/>
      <path class="cls-1" d="m68.72,2.25c-.03.44-.09.87-.17,1.31h7.96l-1.31-1.31h-6.47Z"/>
      <rect class="cls-1" x="22.72" y="14.28" width="2.68" height="8.18" transform="translate(-5.94 22.39) rotate(-44.99)"/>
      <path class="cls-1" d="m67.95,5.81c-.48,1.34-1.15,2.59-2.02,3.73h16.55l-3.73-3.73h-10.81Z"/>
      <rect class="cls-1" x="35.08" y="17.77" width="39.45" height="3.73"/>
      <path class="cls-1" d="m30.84,5.81l-3.73,3.73h16.55c-.86-1.14-1.54-2.39-2.02-3.73h-10.81Z"/>
      <rect class="cls-1" x="19.24" y="17.77" width="2.68" height="8.18" transform="translate(-9.43 20.95) rotate(-45)"/>
      <rect class="cls-1" x="8.79" y="28.22" width="2.68" height="8.18" transform="translate(-19.88 16.62) rotate(-45)"/>
      <rect class="cls-1" x="5.19" y="31.75" width="2.81" height="8.18" transform="translate(-23.42 15.17) rotate(-45.02)"/>
      <path class="cls-1" d="m43.14,2.25c.57,5.98,5.61,10.59,11.66,10.59s11.09-4.62,11.66-10.59h-8.11v2.44c0,.62-.5,1.13-1.13,1.13h-4.86c-.62,0-1.13-.5-1.13-1.13v-2.44h-8.1Z"/>
      <rect class="cls-1" x="15.76" y="21.25" width="2.67" height="8.18" transform="translate(-12.91 19.51) rotate(-45)"/>
      <rect class="cls-1" x="12.27" y="24.73" width="2.68" height="8.18" transform="translate(-16.39 18.06) rotate(-45)"/>
      <path class="cls-1" d="m75.65,14.74c.29,0,.58.11.79.33l3.7,3.7,5.78-5.78-1.2-1.2h-20.94c-2.52,2.13-5.71,3.3-9,3.3s-6.48-1.17-9-3.3h-20.94l-1.15,1.15,5.78,5.78,3.67-3.67c.33-.32.81-.42,1.23-.24.32.13.55.39.64.7h39.57c.1-.33.33-.57.63-.69.14-.06.29-.09.43-.09Z"/>
      <rect class="cls-1" x="81.49" y="17.08" width="8.18" height="2.68" transform="translate(12.04 65.91) rotate(-45)"/>
      <rect class="cls-1" x="88.46" y="24.05" width="8.18" height="2.68" transform="translate(9.16 72.87) rotate(-45)"/>
      <rect class="cls-1" x="84.97" y="20.56" width="8.18" height="2.68" transform="translate(10.6 69.39) rotate(-45)"/>
      <rect class="cls-1" x="91.94" y="27.53" width="8.17" height="2.68" transform="translate(7.73 76.38) rotate(-45.01)"/>
      <rect class="cls-1" x="95.42" y="31.01" width="8.18" height="2.67" transform="translate(6.26 79.82) rotate(-44.99)"/>
      <rect class="cls-1" x="98.93" y="34.48" width="8.18" height="2.74" transform="translate(4.83 83.36) rotate(-45.01)"/>
      <rect class="cls-1" x="35.08" y="35.69" width="39.45" height="3.73"/>
      <rect class="cls-1" x="35.08" y="53.63" width="39.45" height="4.33"/>
      <rect class="cls-1" x="35.08" y="23.74" width="39.45" height="3.73"/>
      <rect class="cls-1" x="35.08" y="29.72" width="39.45" height="3.73"/>
      <rect class="cls-1" x="35.08" y="47.65" width="39.45" height="3.73"/>
      <rect class="cls-1" x="35.08" y="41.67" width="39.45" height="3.73"/>
      <path class="cls-2" d="m109.27,33.14l-6.89-6.89v-.25h-.26L76.45.33c-.13-.14-.3-.23-.46-.28-.11-.04-.22-.05-.34-.05h-41.71c-.3,0-.59.12-.8.33L.32,33.14c-.21.21-.32.5-.32.8s.11.58.32.79l7.38,7.37c.21.22.49.34.79.34s.58-.12.8-.33l23.54-23.54v40.51c0,.62.5,1.12,1.12,1.12h41.7c.62,0,1.13-.5,1.13-1.12V18.58l23.52,23.53c.41.41,1.19.41,1.6,0l7.37-7.38c.43-.44.44-1.15,0-1.59ZM68.72,2.25h6.47l1.31,1.31h-7.95c.07-.44.13-.88.17-1.31Zm10.04,3.56l3.72,3.73h-16.55c.86-1.14,1.54-2.39,2.02-3.73h10.81Zm-25.27-3.56h2.61v1.31h-2.61v-1.31Zm-2.25,0v2.44c0,.62.51,1.12,1.13,1.12h4.85c.63,0,1.13-.5,1.13-1.12v-2.44h8.11c-.57,5.97-5.61,10.59-11.66,10.59s-11.09-4.62-11.66-10.59h8.1Zm-16.84,0h6.47c.04.43.1.87.17,1.31h-7.95l1.31-1.31Zm-3.56,3.56h10.8c.48,1.34,1.16,2.59,2.02,3.73h-16.55l3.73-3.73ZM8.49,39.72l-5.78-5.78,1.99-1.99,5.78,5.78-1.99,1.99Zm3.58-3.58l-5.78-5.78,1.89-1.89,5.78,5.78-1.89,1.89Zm3.48-3.48l-5.78-5.79,1.89-1.89,5.79,5.78-1.9,1.9Zm3.49-3.49l-5.78-5.78,1.89-1.89,5.78,5.78-1.89,1.89Zm3.48-3.48l-5.78-5.78,1.89-1.89,5.78,5.78-1.89,1.89Zm3.48-3.48l-5.78-5.78,1.89-1.9,5.79,5.78-1.9,1.9Zm48.53,35.74h-39.45v-4.32h39.45v4.32Zm0-6.58h-39.45v-3.72h39.45v3.72Zm0-5.97h-39.45v-3.73h39.45v3.73Zm0-5.98h-39.45v-3.73h39.45v3.73Zm0-5.98h-39.45v-3.72h39.45v3.72Zm0-5.97h-39.45v-3.73h39.45v3.73Zm0-5.98h-39.45v-3.72h39.45v3.72Zm1.92-6.42c-.22-.22-.51-.33-.8-.33-.14,0-.29.02-.43.08-.3.13-.52.37-.63.7h-39.57c-.09-.32-.32-.58-.64-.71-.42-.17-.9-.08-1.23.25l-3.66,3.66-5.78-5.78,1.15-1.15h20.94c2.52,2.13,5.7,3.3,9,3.3s6.48-1.17,9-3.3h20.93l1.2,1.2-5.78,5.78-3.7-3.7Zm5.29,5.29l5.78-5.78,1.9,1.89-5.79,5.78-1.89-1.89Zm3.49,3.48l5.78-5.78,1.89,1.9-5.78,5.78-1.89-1.9Zm3.48,3.49l5.78-5.78,1.89,1.89-5.78,5.78-1.89-1.89Zm3.48,3.48l5.78-5.78,1.9,1.89-5.79,5.78-1.89-1.89Zm3.49,3.48l5.78-5.78,1.89,1.9-5.78,5.78-1.89-1.9Zm5.42,5.43l-1.94-1.94,5.78-5.78,1.94,1.94-5.78,5.78Z"/>
    </g>
  </g>
</svg>