<?xml version="1.0" encoding="UTF-8"?>
<svg id="_레이어_2" data-name="레이어 2" xmlns="http://www.w3.org/2000/svg" viewBox="0 0 56.03 59.89">
  <defs>
    <style>
      .cls-1 {
        fill: #272525;
      }
    </style>
  </defs>
  <g id="_레이어_1-2" data-name="레이어 1">
    <path class="cls-1" d="m52,33.5c-3.42-2.93-8.5-4.18-15.11-3.73,4.3-2.93,7.13-7.88,7.13-13.47C44.02,7.31,36.71,0,27.72,0S11.42,7.31,11.42,16.3c0,5.32,2.56,10.05,6.5,13.02-4.77-.47-14.82-.12-17.88,10.48-.03.11-.04.22-.04.34v18.52c0,.68.55,1.23,1.23,1.23h53.57c.68,0,1.23-.55,1.23-1.23v-17.71c-.01-.17-.28-4.23-4.03-7.45ZM13.75,16.3c0-7.7,6.27-13.97,13.97-13.97s13.97,6.27,13.97,13.97-6.23,13.94-13.9,13.97h-.14c-7.67-.03-13.9-6.29-13.9-13.97Zm13.73,18.94h1.19l1.77,3.65-2.42,4.7-1.8-3.55,1.26-4.8Zm-1.47-2.48c0-.46.37-.84.83-.84h2.35c.46,0,.83.38.83.84s-.37.83-.83.83h-2.35c-.46,0-.83-.37-.83-.83Zm4.35,2.17c.78-.42,1.31-1.23,1.31-2.17,0-.22-.03-.42-.09-.62.99-.24,1.93-.57,2.84-.98l-3.04,5.89-1.02-2.12Zm-4.53.09l-.74,2.81-3.21-6.31c.81.31,1.66.56,2.53.75-.04.15-.05.32-.05.49,0,1,.6,1.87,1.47,2.26Zm27.73,22.4H2.47v-17.1c3.1-10.34,14.26-8.82,16.88-8.31l7.56,14.86c.21.42.64.68,1.1.68s.89-.26,1.11-.67l7.51-14.61c6.12-.49,10.73.55,13.71,3.07,2.86,2.43,3.19,5.4,3.22,5.73v16.35Z"/>
  </g>
</svg>