<?xml version="1.0" encoding="UTF-8"?>
<svg id="_레이어_2" data-name="레이어 2" xmlns="http://www.w3.org/2000/svg" viewBox="0 0 60.13 49.27">
  <defs>
    <style>
      .cls-1 {
        fill: #272525;
        stroke: #262424;
        stroke-miterlimit: 10;
        stroke-width: .25px;
      }
    </style>
  </defs>
  <g id="_레이어_1-2" data-name="레이어 1">
    <g>
      <path class="cls-1" d="m53.42,36.58c-6.84-16.96-18.1-21.92-26.37-23.09-8.24-1.16-15.04,1.07-16.37,1.55-1.34-.06-6.9-.15-9.36,2.35-.84.87-1.25,1.97-1.17,3.19-.06.71-.31,6.49,4.98,11.61-.65,2.16-1,4.36-.11,5.13.29.24,1.08.71,2.25-.26.6-.5,1.24-1.16,1.85-1.86,5.41,3.2,12.96,4.81,22.62,4.81,4.59,0,9.65-.37,15.17-1.09-.35,3.64.57,8.96,1.81,9.94.24.18.52.28.81.28.16,0,.32-.03.48-.1.74-.32.96-1.16,1.06-2.32v-.13c.18-1.84.3-3.17.76-3.54.62-.5,2.84-.25,4.88.02.98.14,2.79.38,3.21-.94.21-.69.58-1.85-6.5-5.55ZM3.29,25.87c1.2.83,2.55,1.35,3.67,1.62-.23.48-.63,1.38-1.04,2.44-1.26-1.38-2.09-2.78-2.63-4.06Zm7.2,7.64c.91-1.19,1.69-2.34,2.19-3.11,6.5,3.65,11.72,3.19,16.79,2.74,1.68-.15,3.28-.3,4.9-.29,3.96.03,8,2.38,10.5,4.17-11.57,1.36-25.51,1.52-34.38-3.51Zm40,7.87c-.73.59-1.06,1.41-1.26,2.56-.27-1.73-.39-3.82-.09-5.56.05-.33-.06-.67-.29-.91-.02-.02-.03-.04-.04-.05-.05-.05-.34-.31-.81-.7-.24-.2-.53-.44-.87-.7-2.53-1.96-7.58-5.28-12.74-5.31h-.17c-1.67,0-3.34.15-4.94.29-5.18.47-10.07.9-16.39-2.95-.5-.31-1.15-.15-1.46.35-.02.03-1.25,2-2.75,3.96-.22.28-.44.56-.67.84-.23.28-.47.56-.7.82-.2.22-.39.43-.59.63.06-.28.13-.59.22-.92.09-.35.19-.72.31-1.11.1-.36.22-.72.34-1.09.45-1.32.96-2.58,1.39-3.3.5-.83,1.17-1.96.32-2.68-.25-.22-.75-.48-1.48-.07-1.23-.25-4.93-1.27-5.48-4.56-.02-.13-.05-.25-.06-.39-.05-.66.13-1.18.57-1.64,1.67-1.7,6.29-1.81,7.93-1.7.15.01.31-.02.45-.07.07-.03,7.06-2.7,15.52-1.51,9.66,1.36,17.17,7.01,22.38,16.8.34.65.68,1.31,1,1.99.51,1.07.99,2.18,1.45,3.34.1.24.27.44.5.55,1.56.81,3.29,1.81,4.46,2.6-3.24-.41-4.92-.42-6.05.49Z"/>
      <path class="cls-1" d="m23.75,5.39c-.27-1.27-1.28-2.35-2.48-2.61-1.04-.23-2.02.17-2.71,1.1-1.4,1.89.31,3.47,1.23,4.32.23.22.46.43.62.61.76.86.9,1.66,1.11,2.86l.08.44c.07.37.36.65.73.69.04.01.08.01.11.01.33,0,.64-.19.78-.5.11-.25.15-.52.12-.79.03-.64.13-1.33.25-2.05.21-1.35.43-2.75.16-4.08Zm-1.69,2.74c-.11-.15-.23-.3-.37-.45-.22-.25-.47-.49-.74-.74-1.22-1.13-1.41-1.51-1.01-2.05.23-.31.48-.46.77-.46.06,0,.13.01.19.02.54.12,1.05.67,1.17,1.29.15.72.1,1.54-.01,2.39Z"/>
      <path class="cls-1" d="m32.52,1.64c-.72-1.09-2.24-1.74-3.38-1.45-2.7.69-4.39,4.43-4.53,6.75h.01c0,.07-.01.13-.01.19h1.72c0-.31.52-.92,1.39-1.38.3-.16,1.02-.27,1.66-.37,1.28-.2,2.49-.39,3.06-1.15.6-.78.63-1.75.08-2.59Zm-1.43,1.55c-.22.22-1.36.4-1.98.5-.68.11-1.34.21-1.86.4.59-1.08,1.41-2.01,2.31-2.24.05-.01.1-.02.16-.02.42,0,1.08.31,1.37.75.18.28.13.44,0,.61Z"/>
    </g>
  </g>
</svg>