<?xml version="1.0" encoding="UTF-8"?>
<svg id="_레이어_2" data-name="레이어 2" xmlns="http://www.w3.org/2000/svg" viewBox="0 0 59.07 55.03">
  <defs>
    <style>
      .cls-1 {
        fill: none;
      }

      .cls-2 {
        fill: #231815;
      }
    </style>
  </defs>
  <g id="_레이어_1-2" data-name="레이어 1">
    <g>
      <polygon class="cls-1" points="24.73 15.61 25.39 15.61 25.39 15.13 20.22 15.13 17.6 15.13 2.16 15.13 2.16 15.61 2.78 15.61 24.73 15.61"/>
      <path class="cls-1" d="m19.15,12.98V3.21c0-.52.37-.95.85-1.05h-.38c-.61,0-.81.16-.86.21-.08.09-.08.22-.08.22,0,.04,0,.05,0,.09v10.3h.47Z"/>
      <path class="cls-1" d="m6.11,51c.07.99.89,1.76,1.88,1.76h11.53c.99,0,1.82-.77,1.88-1.76l2.18-33.22H3.93l2.18,33.22Z"/>
      <path class="cls-1" d="m56.86,42.53l-2.16-6.29c-.15-.46-.58-.76-1.06-.76h-23.5c-.49,0-.94.33-1.08.81l-1.79,6.29c-.1.34-.03.7.18.99.22.28.54.44.9.44h27.44c.37,0,.7-.17.92-.47.21-.3.27-.67.15-1.01Zm-2.01.87h-25.79c-.6,0-1.08-.48-1.08-1.07s.48-1.08,1.08-1.08h25.79c.59,0,1.07.48,1.07,1.08s-.48,1.07-1.07,1.07Z"/>
      <path class="cls-1" d="m55.37,46.17h-26.43c-.39,0-.74.19-.95.53s-.23.73-.06,1.09l2.15,4.46c.19.39.58.64,1.01.64h22.14c.43,0,.83-.25,1.01-.64l2.15-4.46c.17-.36.15-.75-.06-1.09s-.56-.53-.95-.53Z"/>
      <path class="cls-2" d="m57.98,45.32c.18-.16.34-.33.48-.52.62-.86.78-1.97.44-2.97l-2.16-6.29c-.45-1.33-1.7-2.22-3.1-2.22h-23.5c-1.45,0-2.75.98-3.15,2.38l-1.79,6.29c-.29,1-.09,2.05.53,2.88.16.2.33.39.53.55-.04.04-.07.08-.1.13-.6.96-.67,2.14-.18,3.17l2.15,4.46c.54,1.12,1.7,1.85,2.96,1.85h22.13c1.25,0,2.41-.73,2.96-1.85l2.15-4.46c.49-1.03.42-2.21-.18-3.17-.05-.08-.11-.15-.17-.23Zm-1.6,2.46l-2.15,4.46c-.18.39-.58.64-1.01.64h-22.13c-.43,0-.83-.25-1.02-.64l-2.14-4.46c-.18-.35-.15-.75.06-1.08.21-.34.55-.53.95-.53h26.43c.39,0,.74.19.95.53.21.33.23.73.06,1.08Zm.33-4.24c-.22.3-.55.47-.92.47h-27.44c-.36,0-.68-.16-.9-.44-.21-.29-.28-.65-.18-.99l1.79-6.29c.14-.48.59-.81,1.08-.81h23.5c.48,0,.91.3,1.06.76l2.16,6.29c.12.34.06.71-.15,1.01Z"/>
      <path class="cls-2" d="m29.06,43.4h25.79c.6,0,1.08-.48,1.08-1.08s-.48-1.08-1.08-1.08h-25.79c-.6,0-1.08.48-1.08,1.08s.48,1.08,1.08,1.08Z"/>
      <path class="cls-2" d="m30.66,0h-11.05c-1.09,0-1.92.32-2.47.94-.51.57-.65,1.3-.62,1.78v10.26H1.08c-.6,0-1.08.48-1.08,1.08v2.63c0,.6.48,1.08,1.08,1.08h.69l2.19,33.37c.14,2.11,1.91,3.77,4.03,3.77h11.53c2.12,0,3.89-1.66,4.03-3.77l2.19-33.37h.72c.6,0,1.08-.48,1.08-1.08v-2.63c0-.6-.48-1.08-1.08-1.08h-5.16V4.29h9.36c.6,0,1.08-.48,1.08-1.08V1.08c0-.59-.48-1.08-1.08-1.08Zm-11.91,2.37s.25-.21.86-.21h.39c-.49.1-.85.54-.85,1.05v9.77h-.47V2.68s0-.05-.01-.09c0-.01,0-.14.08-.22Zm2.65,48.63c-.06.98-.89,1.76-1.88,1.76H7.99c-.99,0-1.82-.78-1.88-1.76L3.93,17.77h19.65l-2.18,33.23Zm3.99-35.87v.48H2.16v-.48h23.23Z"/>
    </g>
  </g>
</svg>