<?xml version="1.0" encoding="UTF-8"?>
<svg id="_레이어_2" data-name="레이어 2" xmlns="http://www.w3.org/2000/svg" viewBox="0 0 58.92 58.92">
  <defs>
    <style>
      .cls-1 {
        fill: none;
      }

      .cls-2 {
        fill: #231815;
      }
    </style>
  </defs>
  <g id="_레이어_1-2" data-name="레이어 1">
    <g>
      <rect class="cls-1" x="14.68" y="12.84" width="33.38" height="28.54"/>
      <path class="cls-1" d="m42.11,49.27v4.37c2.23-1.17,4.28-2.65,6.1-4.37h-6.1Z"/>
      <path class="cls-1" d="m14.68,10.69h33.38v-1.19c-4.88-4.55-11.42-7.34-18.6-7.34-5.44,0-10.52,1.61-14.78,4.36v4.17Z"/>
      <path class="cls-1" d="m42.11,43.54v3.58h8.15c.95-1.12,1.82-2.31,2.58-3.58h-10.73Z"/>
      <path class="cls-1" d="m50.21,41.38h3.8c1.76-3.61,2.75-7.65,2.75-11.93,0-6.75-2.47-12.94-6.55-17.71v29.64Z"/>
      <path class="cls-1" d="m12.52,43.54h-6.45c1.7,2.81,3.89,5.28,6.45,7.31v-7.31Z"/>
      <path class="cls-1" d="m39.96,43.54H14.68v8.86c4.26,2.76,9.34,4.36,14.78,4.36,3.72,0,7.26-.75,10.5-2.1v-11.12Z"/>
      <path class="cls-1" d="m12.52,20.5v-12.43c-4.02,3.19-7.13,7.49-8.85,12.43h8.85Z"/>
      <path class="cls-1" d="m12.52,41.38v-18.73H3.01c-.56,2.18-.86,4.46-.86,6.8,0,4.27.99,8.32,2.75,11.93h7.62Z"/>
      <path class="cls-2" d="m29.46,0C13.21,0,0,13.21,0,29.46s13.21,29.46,29.46,29.46,29.46-13.21,29.46-29.46S45.7,0,29.46,0Zm27.3,29.46c0,4.27-.99,8.32-2.75,11.93h-3.8V11.75c4.08,4.77,6.55,10.96,6.55,17.71ZM14.68,12.84h33.38v28.54H14.68V12.84Zm27.43,36.43h6.1c-1.82,1.72-3.87,3.19-6.1,4.37v-4.37Zm0-2.16v-3.58h10.73c-.76,1.26-1.63,2.46-2.58,3.58h-8.15Zm5.94-37.62v1.19H14.68v-4.17c4.26-2.76,9.34-4.36,14.78-4.36,7.18,0,13.72,2.79,18.6,7.34Zm-35.53-1.43v12.43H3.67c1.72-4.94,4.83-9.24,8.85-12.43ZM3.01,22.65h9.51v18.73h-7.62c-1.76-3.61-2.75-7.65-2.75-11.93,0-2.35.3-4.63.86-6.8Zm3.06,20.89h6.45v7.31c-2.56-2.03-4.75-4.5-6.45-7.31Zm8.6,8.86v-8.86h25.27v11.12c-3.23,1.35-6.78,2.1-10.5,2.1-5.44,0-10.52-1.61-14.78-4.36Z"/>
    </g>
  </g>
</svg>