<?xml version="1.0" encoding="UTF-8"?>
<svg id="_레이어_2" data-name="레이어 2" xmlns="http://www.w3.org/2000/svg" viewBox="0 0 62.78 39.41">
  <defs>
    <style>
      .cls-1 {
        fill: none;
      }

      .cls-2 {
        fill: #231815;
      }
    </style>
  </defs>
  <g id="_레이어_1-2" data-name="레이어 1">
    <g>
      <path class="cls-1" d="m50.06,36.79h9.41c.24,0,.43-.1.57-.3s.16-.41.08-.64l-6.62-17.58c-.1-.26-.36-.45-.64-.45h-9.41c-.23,0-.43.11-.57.3-.13.19-.16.42-.08.63l6.62,17.58c.1.26.36.45.64.45Z"/>
      <path class="cls-2" d="m62.56,34.94l-6.61-17.58c-.07-.18-.15-.35-.25-.51,1.22-.87,2.03-2.3,2.03-3.91V4.81c0-2.65-2.16-4.81-4.82-4.81h-11.68c-1.46,0-2.75.66-3.64,1.69-.64-1.01-1.76-1.69-3.05-1.69H7.34c-1.04,0-1.97.44-2.63,1.14-.24-.08-.49-.13-.76-.13h-1.57C1.07,1.01,0,2.08,0,3.4v3.31c0,1.31,1.07,2.38,2.38,2.38h1.39c.1.63.34,1.19.71,1.67-.47.56-.76,1.28-.76,2.07v1.36c0,1.8,1.46,3.26,3.26,3.26h18.27c-.04.21-.06.43-.06.65v6.9c0,1.8,1.46,3.26,3.26,3.26h1.4l13.71-.03,3.41,9.04c.48,1.28,1.72,2.14,3.09,2.14h9.41c1.09,0,2.1-.53,2.72-1.42.62-.9.76-2.03.37-3.05ZM3.72,6.48h-1.11v-2.85h1.11v2.85Zm35.31-1.67c0-1.21.98-2.2,2.2-2.2h11.68c1.22,0,2.2.99,2.2,2.2v8.13c0,1.21-.98,2.2-2.2,2.2h-11.68c-1.22,0-2.2-.99-2.2-2.2V4.81Zm-1.45,11.23c.68.81,1.62,1.4,2.69,1.62-.18.66-.17,1.37.08,2.02l.25.66-7.52.02v-2.26c0-.22-.03-.44-.07-.65h1.88c1.12,0,2.1-.56,2.69-1.41ZM6.34,3.61c0-.55.44-1,1-1h27.2c.55,0,1,.45,1,1v4.96c0,.55-.45,1-1,1H7.34c-.56,0-1-.45-1-1V3.61Zm.64,11.23c-.35,0-.64-.29-.64-.65v-1.36c0-.36.29-.65.64-.65h27.91c.36,0,.65.29.65.65v1.36c0,.36-.29.65-.65.65H6.98Zm22.88,10.8h-1.41c-.36,0-.65-.28-.65-.64v-6.9c0-.35.29-.64.64-.65h1.38c.35.01.64.3.64.65v3.27c0,.43.17.84.47,1.14.31.31.71.47,1.14.47h.01l9.47-.02.98,2.66-12.67.02Zm30.18,10.86c-.14.19-.33.29-.57.29h-9.41c-.28,0-.55-.18-.65-.44l-6.61-17.59c-.09-.21-.06-.44.07-.63.14-.19.34-.3.57-.3h9.41c.28,0,.55.18.65.45l6.62,17.58c.08.22.05.44-.08.64Z"/>
      <path class="cls-2" d="m49.59,7.95l-1.11-3.77c-.28-.95-1.28-1.5-2.23-1.22-.46.14-.84.44-1.07.86-.23.43-.28.91-.15,1.37l1.12,3.78c.13.46.44.84.86,1.07.26.14.56.22.86.22.17,0,.34-.03.51-.08.46-.13.84-.44,1.07-.86.23-.42.28-.91.14-1.37Zm-1.56.6s-.06.07-.11.08c-.04.02-.09.01-.14-.01-.04-.03-.07-.06-.08-.11l-1.12-3.78c-.02-.09.03-.19.12-.22.02,0,.04-.01.06-.01.06,0,.14.04.17.13l1.11,3.78c.02.05,0,.09-.01.14Z"/>
      <path class="cls-2" d="m54.4,7.95l-1.11-3.77c-.28-.95-1.28-1.5-2.23-1.22-.46.13-.84.44-1.07.86-.23.43-.29.91-.15,1.37l1.11,3.78c.23.76.94,1.29,1.73,1.29.17,0,.34-.03.5-.08.46-.13.84-.44,1.07-.86.23-.42.29-.91.15-1.37Zm-1.57.6s-.06.07-.1.08c-.03.01-.08.02-.14-.01-.04-.03-.07-.06-.09-.11l-1.11-3.78c-.02-.06,0-.11.02-.13.01-.03.04-.07.11-.09.01-.01.03-.01.04-.01.07,0,.15.04.18.13l1.11,3.78c0,.05,0,.09-.02.14Z"/>
    </g>
  </g>
</svg>