<?xml version="1.0" encoding="UTF-8"?>
<svg id="_레이어_2" data-name="레이어 2" xmlns="http://www.w3.org/2000/svg" viewBox="0 0 64.55 59.48">
  <defs>
    <style>
      .cls-1 {
        fill: #262424;
      }

      .cls-2 {
        fill: none;
      }
    </style>
  </defs>
  <g id="_레이어_1-2" data-name="레이어 1">
    <g>
      <path class="cls-2" d="m8.07,10.64v5.19c-.02.12-.49.54-1.38.54s-1.35-.42-1.37-.54v-5.19c.01-.12.49-.54,1.37-.54s1.36.42,1.38.54Z"/>
      <path class="cls-2" d="m60.07,10.64v5.19c0,.16-.44.54-1.17.54s-1.18-.38-1.18-.54v-5.19c0-.16.44-.54,1.18-.54s1.17.38,1.17.54Z"/>
      <path class="cls-1" d="m64.53,45.62c-.06-1.6-.98-2.85-2.33-3.43v-13.25c0-2.35-1.85-4.26-4.12-4.26h-1.04v-6.24c.55.25,1.17.4,1.86.4,2.04,0,3.65-1.32,3.65-3.01v-5.19c0-1.69-1.61-3.01-3.65-3.01-.69,0-1.31.15-1.86.4v-3.06c0-2.74-1.89-4.97-4.21-4.97H12.66c-2.32,0-4.21,2.23-4.21,4.97v2.98c-.53-.21-1.12-.32-1.76-.32-2.16,0-3.85,1.32-3.85,3.01v5.19c0,1.69,1.69,3.01,3.85,3.01.64,0,1.23-.11,1.76-.32v6.16h-1.04c-2.27,0-4.12,1.91-4.12,4.26v12.97s-.09.01-.14.02c-1.88.33-3.08,1.92-3.14,3.78-.05,1.61.01,3.22,1.35,4.34.6.49,1.25.71,1.93.81v3.4c0,2.33,1.89,4.22,4.22,4.22h1.86c2.33,0,4.22-1.89,4.22-4.22v-3.32h38.31v4.33c0,2.32,1.89,4.21,4.21,4.21h1.87c2.33,0,4.22-1.89,4.22-4.21v-4.66c.47-.18.91-.45,1.31-.88,1.07-1.13,1.08-2.64,1.02-4.11Zm-6.81-34.98c0-.16.44-.54,1.18-.54s1.17.38,1.17.54v5.19c0,.16-.44.54-1.17.54s-1.18-.38-1.18-.54v-5.19ZM8.07,15.83c-.02.12-.49.54-1.38.54s-1.35-.42-1.37-.54v-5.19c.01-.12.49-.54,1.37-.54s1.36.42,1.38.54v5.19Zm2.85-10.86c0-1.35.8-2.49,1.74-2.49h40.17c.94,0,1.74,1.14,1.74,2.49v19.71H10.92V4.97Zm-5.15,23.97c0-.98.73-1.78,1.64-1.78h50.67c.9,0,1.64.8,1.64,1.78v12.92H6.56c-.26,0-.53,0-.79-.02v-12.9Zm5.34,25.32c0,.96-.78,1.74-1.74,1.74h-1.86c-.96,0-1.74-.78-1.74-1.74v-3.32h5.34v3.32Zm48.61,1.01c0,.96-.78,1.74-1.74,1.74h-1.87c-.96,0-1.74-.78-1.74-1.74v-4.33h5.35v4.33Zm1.93-8.09c-.12,1.14-1.6.87-2.38.87H5.17c-.86,0-2.08.25-2.27-.91-.14-.87-.11-2.25.94-2.39.25-.04.53,0,.77,0h53.95c.69,0,1.47-.1,2.16,0,1.19.17.93,1.54.93,2.43Z"/>
      <path class="cls-1" d="m53.02,7.65c-.54-1.28-1.76-2-3.11-2.07h-31.56c-.77,0-1.63-.08-2.38.11-2.19.57-2.53,2.56-2.53,4.48v6.54c0,1.75-.17,3.64,1.52,4.75.92.61,1.91.56,2.94.56h29.55c.8,0,1.61.03,2.41,0,2.07-.07,3.4-1.62,3.43-3.63.03-1.95,0-3.91,0-5.86,0-1.47.32-3.48-.27-4.88Zm-2.05,3.98v7.01c-.11,1.28-1.42,1.07-2.31,1.07h-30.71c-.9,0-2.04.18-2.2-1.08-.16-1.35,0-2.83,0-4.19,0-1.71-.08-3.44,0-5.15.04-.72.25-1.3,1.11-1.4.21-.02.43,0,.63,0h26.38c1.96,0,4.07-.22,6.02,0,1.55.18,1.08,2.65,1.08,3.74Z"/>
      <path class="cls-1" d="m20.83,33.81c-.34-1.89-2.07-3.25-3.97-3.27-1.69.02-3.19,1.06-3.79,2.64-.6,1.57-.09,3.44,1.21,4.5,1.31,1.08,3.19,1.25,4.65.38,1.46-.88,2.2-2.58,1.9-4.25Zm-2.26,1.06c-.16.85-.87,1.43-1.71,1.44-.7-.01-1.39-.46-1.61-1.12-.26-.73-.06-1.48.55-1.97.52-.43,1.34-.49,1.95-.12.6.36.95,1.1.82,1.77Z"/>
      <path class="cls-1" d="m53.83,33.81c-.34-1.89-2.07-3.25-3.97-3.27-1.69.02-3.19,1.06-3.79,2.64-.6,1.57-.09,3.44,1.21,4.5,1.31,1.08,3.18,1.25,4.65.38,1.46-.88,2.2-2.58,1.9-4.25Zm-2.26,1.06c-.16.85-.87,1.43-1.71,1.44-.7-.01-1.39-.46-1.62-1.12-.25-.73-.05-1.48.55-1.97.53-.43,1.35-.49,1.96-.12.6.36.95,1.1.82,1.77Z"/>
    </g>
  </g>
</svg>