<?xml version="1.0" encoding="UTF-8"?>
<svg id="_레이어_2" data-name="레이어 2" xmlns="http://www.w3.org/2000/svg" viewBox="0 0 23.49 28.51">
  <defs>
    <style>
      .cls-1 {
        fill: #7d7c7d;
      }
    </style>
  </defs>
  <g id="_레이어_1-2" data-name="레이어 1">
    <path class="cls-1" d="m19.33,20.19c-.97,0-1.85.35-2.56.9l-8.76-5.28c.2-.48.31-1.01.31-1.56,0-.65-.16-1.26-.43-1.81l8.81-5.09c.72.59,1.62.96,2.63.96,2.3,0,4.16-1.86,4.16-4.16s-1.86-4.16-4.16-4.16-4.16,1.86-4.16,4.16c0,.59.12,1.14.34,1.65l-8.87,5.13c-.69-.52-1.55-.84-2.48-.84-2.3,0-4.16,1.86-4.16,4.16s1.86,4.16,4.16,4.16c1.03,0,1.97-.39,2.7-1.02l8.7,5.23c-.24.53-.38,1.11-.38,1.72,0,2.3,1.86,4.16,4.16,4.16s4.16-1.86,4.16-4.16-1.86-4.16-4.16-4.16Z"/>
  </g>
</svg>