<?xml version="1.0" encoding="UTF-8"?>
<svg id="_레이어_2" data-name="레이어 2" xmlns="http://www.w3.org/2000/svg" viewBox="0 0 34.06 42.22">
  <defs>
    <style>
      .cls-1 {
        fill: #fff;
      }

      .cls-2 {
        fill: #00c8f7;
      }
    </style>
  </defs>
  <g id="_레이어_1-2" data-name="레이어 1">
    <g>
      <path class="cls-2" d="m31.51,0H2.55C1.14,0,0,1.19,0,2.65v36.91c0,2.55,3.13,3.63,4.6,1.58l10.38-12.11c1.02-1.43,3.08-1.43,4.1,0l10.38,12.11c1.47,2.05,4.6.97,4.6-1.58V2.65c0-1.46-1.14-2.65-2.55-2.65Z"/>
      <g>
        <path class="cls-1" d="m17.09,6.57v7.81c0,3.94-1.75,5.42-4.85,5.42s-4.85-1.48-4.85-5.42v-7.81h1.79v7.59c0,2.93.98,4.03,3.06,4.03s3.06-1.1,3.06-4.03v-7.59h1.79Z"/>
        <path class="cls-1" d="m21.53,10.95c.58-1.01,1.72-1.41,2.89-1.41,2.5,0,3.85,1.61,3.85,4.21v1.75c0,2.73-1.59,4.25-3.96,4.25-1.46,0-2.33-.65-2.73-1.23v4.95h-1.75v-13.76h1.7v1.23Zm.04,5.14c0,1.03,1.08,2.13,2.6,2.13s2.37-1.1,2.37-2.97v-1.21c0-1.88-.9-2.97-2.37-2.97s-2.6.98-2.6,2.51v2.5Z"/>
      </g>
    </g>
  </g>
</svg>